<svg xmlns="http://www.w3.org/2000/svg" width="720" height="180" viewBox="0 0 720 180">

<defs>
  <linearGradient id="yorlyGradient" x1="0%" y1="0%" x2="100%" y2="100%">
    <stop offset="0%" stop-color="#22D3EE"/>
    <stop offset="52%" stop-color="#3B82F6"/>
    <stop offset="100%" stop-color="#8B5CF6"/>
  </linearGradient>
</defs>

<g transform="translate(20,18) scale(1.05)">

<g fill="none" stroke="url(#yorlyGradient)" stroke-width="10" stroke-linecap="round" stroke-linejoin="round">
  <path d="M24 38 H104 A14 14 0 0 1 118 52 V108 A14 14 0 0 1 104 122 H24 A14 14 0 0 1 10 108 V52 A14 14 0 0 1 24 38 Z"/>
  <path d="M10 66 H118"/>
  <path d="M36 18 V46"/>
  <path d="M92 18 V46"/>
  <path d="M42 80 L64 101 L86 80"/>
  <path d="M64 101 V120"/>
</g>

</g>
<text x="175" y="112" fill="#FFFFFF"
      font-family="Inter, Manrope, Arial, sans-serif"
      font-size="82" font-weight="700" letter-spacing="-2">Yorly</text>
</svg>